#tb 0: 1/44100
#media_type 0: audio
#codec_id 0: pcm_s16le
#sample_rate 0: 44100
#channel_layout_name 0: stereo
0,          0,          0,     1024,     4096, 0x1290fa57
0,       1024,       1024,     1024,     4096, 0xc363f67e
0,       2048,       2048,     1024,     4096, 0x9a38065f
0,       3072,       3072,     1024,     4096, 0xef2ae6e6
0,       4096,       4096,     1024,     4096, 0x585fe3b5
0,       5120,       5120,     1024,     4096, 0x2d38f104
0,       6144,       6144,     1024,     4096, 0xaacfdcf8
0,       7168,       7168,     1024,     4096, 0xed2d02b7
0,       8192,       8192,     1024,     4096, 0xe1650058
0,       9216,       9216,     1024,     4096, 0x0fe208a3
0,      10240,      10240,     1024,     4096, 0xf1ece81f
0,      11264,      11264,     1024,     4096, 0x836ef60b
0,      12288,      12288,     1024,     4096, 0x6683e4cd
0,      13312,      13312,     1024,     4096, 0x0b42025c
0,      14336,      14336,     1024,     4096, 0x07fbda9c
0,      15360,      15360,     1024,     4096, 0x8f3f07c0
0,      16384,      16384,     1024,     4096, 0x145dfc54
0,      17408,      17408,     1024,     4096, 0x4f74eeba
0,      18432,      18432,     1024,     4096, 0xc75eea1e
0,      19456,      19456,     1024,     4096, 0x08c7ed8e
